<?xml version="1.0" encoding="UTF-8" standalone="no"?>
<!-- Created with Inkscape (http://www.inkscape.org/) -->

<svg
   xmlns:dc="http://purl.org/dc/elements/1.1/"
   xmlns:cc="http://creativecommons.org/ns#"
   xmlns:rdf="http://www.w3.org/1999/02/22-rdf-syntax-ns#"
   xmlns:svg="http://www.w3.org/2000/svg"
   xmlns="http://www.w3.org/2000/svg"
   xmlns:sodipodi="http://sodipodi.sourceforge.net/DTD/sodipodi-0.dtd"
   xmlns:inkscape="http://www.inkscape.org/namespaces/inkscape"
   width="104.55366"
   height="16.882526"
   viewBox="0 0 27.663161 4.4668352"
   version="1.1"
   id="svg8"
   inkscape:version="0.92.4 (5da689c313, 2019-01-14)"
   sodipodi:docname="stars.svg">
  <defs
     id="defs2" />
  <sodipodi:namedview
     id="base"
     pagecolor="#ffffff"
     bordercolor="#666666"
     borderopacity="1.0"
     inkscape:pageopacity="0.0"
     inkscape:pageshadow="2"
     inkscape:zoom="1.18"
     inkscape:cx="371.83242"
     inkscape:cy="-107.66908"
     inkscape:document-units="mm"
     inkscape:current-layer="layer1"
     showgrid="false"
     units="px"
     fit-margin-top="0"
     fit-margin-left="0"
     fit-margin-right="0"
     fit-margin-bottom="0"
     inkscape:window-width="1366"
     inkscape:window-height="705"
     inkscape:window-x="-8"
     inkscape:window-y="-8"
     inkscape:window-maximized="1" />
  <metadata
     id="metadata5">
    <rdf:RDF>
      <cc:Work
         rdf:about="">
        <dc:format>image/svg+xml</dc:format>
        <dc:type
           rdf:resource="http://purl.org/dc/dcmitype/StillImage" />
        <dc:title></dc:title>
      </cc:Work>
    </rdf:RDF>
  </metadata>
  <g
     inkscape:label="Vrstva 1"
     inkscape:groupmode="layer"
     id="layer1"
     transform="translate(-7.4526731,-5.6358044)">
    <path
       id="path20-45"
       d="m 17.649514,7.22356 a 0.07858125,0.07858125 0 0 0 -0.0635,-0.0534 L 16.167847,6.96405 15.533641,5.67923 a 0.07831667,0.07831667 0 0 0 -0.140229,0 L 14.758676,6.96431 13.34051,7.17042 a 0.07858125,0.07858125 0 0 0 -0.04366,0.13362 l 1.026584,1.00012 -0.242623,1.41288 a 0.07858125,0.07858125 0 0 0 0.113771,0.0825 l 1.268677,-0.66675 1.268412,0.66675 a 0.07831667,0.07831667 0 0 0 0.113771,-0.0828 L 16.603084,8.3044 17.629667,7.30374 c 0.02117,-0.0212 0.0291,-0.0521 0.01984,-0.0804 z"
       inkscape:connector-curvature="0"
       style="fill:#ef9546;fill-rule:nonzero;stroke-width:0.26458332" />
    <path
       id="path20-45-4"
       d="m 23.470348,7.223559 a 0.07858125,0.07858125 0 0 0 -0.0635,-0.0534 l -1.418167,-0.20611 -0.634206,-1.28482 a 0.07831667,0.07831667 0 0 0 -0.140229,0 l -0.634736,1.28508 -1.418166,0.20611 a 0.07858125,0.07858125 0 0 0 -0.04366,0.13362 l 1.026584,1.000121 -0.242623,1.41288 a 0.07858125,0.07858125 0 0 0 0.113771,0.0825 l 1.268677,-0.66675 1.268412,0.66675 a 0.07831667,0.07831667 0 0 0 0.113771,-0.0828 l -0.242358,-1.412341 1.026583,-1.00066 c 0.02117,-0.0212 0.0291,-0.0521 0.01984,-0.0804 z"
       inkscape:connector-curvature="0"
       style="fill:#ef9546;fill-rule:nonzero;stroke-width:0.26458332" />
    <path
       id="path20-45-6"
       d="m 29.291181,7.223559 a 0.07858125,0.07858125 0 0 0 -0.0635,-0.0534 l -1.418167,-0.20611 -0.634206,-1.28482 a 0.07831667,0.07831667 0 0 0 -0.140229,0 l -0.634736,1.28508 -1.418166,0.20611 a 0.07858125,0.07858125 0 0 0 -0.04366,0.13362 l 1.026584,1.00012 -0.242623,1.41288 a 0.07858125,0.07858125 0 0 0 0.113771,0.0825 l 1.268677,-0.66675 1.268412,0.66675 a 0.07831667,0.07831667 0 0 0 0.113771,-0.0828 l -0.242358,-1.41234 1.026583,-1.00066 c 0.02117,-0.0212 0.0291,-0.0521 0.01984,-0.0804 z"
       inkscape:connector-curvature="0"
       style="fill:#ef9546;fill-rule:nonzero;stroke-width:0.26458332" />
    <path
       id="path20-45-3"
       d="m 35.112014,7.22356 a 0.07858125,0.07858125 0 0 0 -0.0635,-0.0534 L 33.630347,6.96405 32.996141,5.67923 a 0.07831667,0.07831667 0 0 0 -0.140229,0 L 32.221176,6.96431 30.80301,7.17042 a 0.07858125,0.07858125 0 0 0 -0.04366,0.13362 l 1.026584,1.00012 -0.242623,1.41288 a 0.07858125,0.07858125 0 0 0 0.113771,0.0825 l 1.268677,-0.66675 1.268412,0.66675 a 0.07831667,0.07831667 0 0 0 0.113771,-0.0828 L 34.065584,8.3044 35.092167,7.30374 c 0.02117,-0.0212 0.0291,-0.0521 0.01984,-0.0804 z"
       inkscape:connector-curvature="0"
       style="fill:#ef9546;fill-rule:nonzero;stroke-width:0.26458332" />
    <path
       id="path20-45-1"
       d="m 12.105226,7.361745 a 0.07858125,0.07858125 0 0 0 -0.0635,-0.0534 L 10.623559,7.102235 9.9893536,5.817415 a 0.07831667,0.07831667 0 0 0 -0.140229,0 l -0.634736,1.28508 -1.418166,0.20611 a 0.07858125,0.07858125 0 0 0 -0.04366,0.13362 l 1.026584,1.0001201 -0.242623,1.41288 a 0.07858125,0.07858125 0 0 0 0.113771,0.0825 l 1.268677,-0.66675 1.2684114,0.66675 a 0.07831667,0.07831667 0 0 0 0.113771,-0.0828 L 11.058796,8.442585 12.085379,7.441925 c 0.02117,-0.0212 0.0291,-0.0521 0.01984,-0.0804 z"
       inkscape:connector-curvature="0"
       style="fill:#ef9546;fill-rule:nonzero;stroke-width:0.26458332" />
  </g>
</svg>
